<?xml version="1.0" encoding="UTF-8"?><svg id="Layer_2" xmlns="http://www.w3.org/2000/svg" xmlns:xlink="http://www.w3.org/1999/xlink" viewBox="0 0 172 172"><defs><style>.cls-1{clip-path:url(#clippath);}.cls-2{fill:none;}</style><clipPath id="clippath"><rect class="cls-2" width="172" height="172"/></clipPath></defs><g id="Layer_1-2"><g class="cls-1"><path id="Path_229" d="M2.78,172H69.36c1.53,0,2.77-1.24,2.77-2.77v-16.65c-.02-6.01-3.92-11.32-9.64-13.14,1.74-2.18,2.69-4.88,2.7-7.67,0-6.89-5.59-12.48-12.48-12.48s-12.48,5.59-12.48,12.48c0,2.79,.96,5.49,2.7,7.67-2.74,.88-5.14,2.59-6.87,4.9-1.72-2.31-4.12-4.02-6.87-4.9,1.74-2.18,2.69-4.88,2.7-7.67,0-6.89-5.59-12.48-12.48-12.49-6.89,0-12.48,5.59-12.49,12.48h0c0,2.79,.96,5.49,2.7,7.67-5.72,1.83-9.61,7.14-9.63,13.14v16.64c0,1.53,1.24,2.77,2.77,2.77h0Zm49.93-47.16c3.83,0,6.95,3.1,6.95,6.93,0,3.83-3.1,6.95-6.93,6.95-3.83,0-6.95-3.1-6.95-6.93,0-1.84,.73-3.61,2.03-4.92,1.3-1.3,3.06-2.03,4.9-2.03Zm-13.87,27.74c0-4.6,3.73-8.32,8.32-8.32h11.1c4.6,0,8.32,3.73,8.32,8.32v13.87h-27.74v-13.87Zm-19.42-27.74c3.83,0,6.95,3.1,6.95,6.93,0,3.83-3.1,6.95-6.93,6.95s-6.95-3.1-6.95-6.93c0-1.84,.73-3.61,2.03-4.92,1.3-1.3,3.06-2.03,4.9-2.03Zm-13.87,27.74c0-4.6,3.73-8.32,8.32-8.32h11.1c4.6,0,8.32,3.73,8.32,8.32v13.87H5.55v-13.87Z"/><path id="Path_230" d="M162.36,139.44c1.74-2.18,2.69-4.88,2.7-7.67,0-6.89-5.58-12.49-12.47-12.5s-12.49,5.58-12.5,12.47v.03c0,2.79,.96,5.49,2.7,7.67-5.72,1.83-9.61,7.14-9.63,13.14v16.64c0,1.53,1.24,2.77,2.77,2.77h33.29c1.53,0,2.77-1.24,2.77-2.77h0v-16.65c-.02-6.01-3.92-11.32-9.64-13.14h0Zm-9.78-14.6c3.83,0,6.95,3.1,6.95,6.93s-3.1,6.95-6.93,6.95c-3.83,0-6.95-3.1-6.95-6.93,0-1.84,.73-3.61,2.03-4.92,1.3-1.3,3.06-2.03,4.9-2.03h0Zm13.87,41.61h-27.74v-13.87c0-4.6,3.73-8.32,8.32-8.32h11.1c4.59,0,8.32,3.73,8.32,8.32v13.87Z"/><path id="Path_231" d="M166.45,86V2.77C166.45,1.24,165.21,0,163.68,0H8.32c-1.53,0-2.77,1.24-2.77,2.77h0V86c0,1.53,1.24,2.77,2.77,2.77H163.68c1.53,0,2.77-1.24,2.77-2.77h0m-5.55-2.78H11.1V5.55H160.9V83.23Z"/><path id="Path_232" d="M138.71,116.52v-16.65c0-3.06-2.49-5.54-5.55-5.55h-22.19c-3.06,0-5.54,2.49-5.55,5.55v16.64c0,3.06,2.49,5.54,5.55,5.55h4.58l13.11,10.49c1.2,.96,2.94,.76,3.9-.43,.54-.68,.74-1.57,.52-2.41l-1.91-7.65h1.99c3.06,0,5.54-2.49,5.55-5.55h0Zm-11.1,0c-1.53,0-2.77,1.24-2.78,2.77,0,.23,.03,.46,.08,.68l.78,3.12-7.45-5.96c-.49-.39-1.1-.61-1.73-.61h-5.55v-16.65h22.19v16.64h-5.55Z"/><path id="Path_233" d="M73.4,132.72c1,.64,2.3,.57,3.23-.17l13.11-10.49h4.58c3.06,0,5.54-2.49,5.55-5.55v-16.64c0-3.06-2.49-5.54-5.55-5.55h-22.19c-3.06,0-5.54,2.49-5.55,5.55v16.65c0,3.06,2.49,5.54,5.55,5.55h1.99l-1.91,7.65c-.29,1.15,.19,2.36,1.19,3.01h0Zm-1.28-16.21v-16.65h22.19v16.65h-5.55c-.63,0-1.24,.21-1.73,.61l-7.45,5.96,.78-3.12h0c.37-1.49-.53-2.99-2.02-3.36-.22-.06-.45-.08-.67-.08h-5.55Z"/><path id="Path_234" d="M114.07,32.7c-1.34,6.42,1.26,13.02,6.6,16.81v5.97c0,4.6,3.73,8.32,8.32,8.32h2.77c4.6,0,8.32-3.73,8.32-8.32v-5.97c7.44-5.38,9.12-15.77,3.74-23.21-5.38-7.44-15.77-9.12-23.21-3.74-3.38,2.44-5.72,6.06-6.55,10.14h0Zm17.7,25.56h-2.77c-1.53,0-2.77-1.24-2.77-2.77h8.32c0,1.53-1.24,2.77-2.77,2.77m-12.26-24.47c.87-4.27,4.18-7.63,8.44-8.56,.81-.17,1.63-.26,2.46-.26,6.11-.01,11.06,4.93,11.07,11.04,0,3.97-2.11,7.64-5.56,9.61-.85,.5-1.38,1.41-1.38,2.4v1.92h-8.32v-1.92c0-.99-.52-1.9-1.38-2.4-4.15-2.37-6.3-7.15-5.33-11.83h0Z"/><rect id="Rectangle_97" x="127.61" y="11.1" width="5.55" height="5.55"/><rect id="Rectangle_98" x="149.81" y="30.52" width="5.55" height="5.55"/><rect id="Rectangle_99" x="105.42" y="30.52" width="5.55" height="5.55"/><rect id="Rectangle_100" x="111.92" y="15.83" width="5.55" height="5.55" transform="translate(20.44 86.55) rotate(-45)"/><rect id="Rectangle_101" x="143.31" y="15.83" width="5.55" height="5.55" transform="translate(29.63 108.75) rotate(-45)"/><path id="Path_235" d="M41.95,60.92h.15c6.21-.04,11.21-5.1,11.17-11.31-.04-6.21-5.1-11.21-11.31-11.17-6.21,.04-11.21,5.1-11.17,11.31,.04,6.15,5.02,11.13,11.17,11.17Zm-3.98-15c1.03-1.06,2.44-1.67,3.92-1.68h.08c3.07-.02,5.58,2.46,5.6,5.53s-2.46,5.58-5.53,5.6c-1.47-.02-2.88-.58-3.96-1.58-2.2-2.15-2.25-5.67-.1-7.87h0Z"/><path id="Path_236" d="M17.14,55.51c-.19,.71-.09,1.46,.28,2.1l5.55,9.61h0c.37,.64,.98,1.1,1.69,1.29,.71,.18,1.47,.09,2.1-.28l3.95-2.39h0c.88,.62,1.81,1.15,2.79,1.61v4.67c0,1.53,1.24,2.77,2.77,2.77h11.1c1.53,0,2.77-1.24,2.77-2.77h0l-.11-4.62c.98-.45,1.92-.99,2.8-1.61l4.04,2.34c.64,.36,1.39,.46,2.11,.28,.71-.19,1.32-.66,1.68-1.29l5.55-9.61h0c.77-1.33,.31-3.02-1.02-3.79l-4.03-2.32c.05-.53,.07-1.05,.07-1.56s-.02-1.04-.07-1.56l4.03-2.32c1.33-.77,1.78-2.46,1.02-3.79l-5.55-9.61h0c-.77-1.33-2.46-1.78-3.79-1.02l-3.95,2.39c-.88-.61-1.81-1.15-2.78-1.6v-4.67c0-1.53-1.24-2.77-2.77-2.77h-11.1c-1.53,0-2.77,1.24-2.77,2.77l.11,4.61c-.98,.45-1.92,.99-2.8,1.61l-4.04-2.34h0c-1.33-.77-3.02-.31-3.79,1.02l-5.55,9.61h0c-.76,1.33-.31,3.02,1.02,3.79l4.03,2.32c-.05,.53-.07,1.05-.07,1.56s.02,1.04,.07,1.56l-4.03,2.32c-.64,.37-1.1,.97-1.29,1.69Zm11.04-3.04h0c-.32-1.67-.32-3.4,0-5.07,.21-1.15-.32-2.32-1.34-2.9l-3.24-1.87,2.77-4.81,1.64,.95c1.82,1.06,4.1,.99,5.85-.2,.65-.46,1.35-.85,2.07-1.19,1.91-.92,3.11-2.85,3.1-4.97v-1.9h5.55v1.9c-.01,2.12,1.19,4.06,3.1,4.98,.72,.33,1.41,.73,2.06,1.18,1.75,1.19,4.03,1.27,5.85,.2l1.64-.95,2.77,4.81-3.23,1.86h0c-1.02,.59-1.55,1.75-1.34,2.9,.33,1.67,.33,3.4,0,5.07-.21,1.15,.32,2.32,1.34,2.9l3.24,1.87-2.77,4.81-1.64-.95h0c-1.82-1.07-4.1-.99-5.85,.19-.65,.46-1.35,.85-2.07,1.19-1.91,.92-3.11,2.85-3.1,4.97v1.9h-5.54v-1.9c.01-2.12-1.2-4.06-3.11-4.98-.72-.33-1.41-.73-2.06-1.18-1.75-1.19-4.03-1.26-5.86-.2l-1.64,.95-2.77-4.81,3.24-1.87h0c1.02-.59,1.55-1.75,1.34-2.9h0Z"/><rect id="Rectangle_102" x="127.61" y="69.36" width="5.55" height="5.55"/><rect id="Rectangle_103" x="116.52" y="69.36" width="5.55" height="5.55"/><rect id="Rectangle_104" x="105.42" y="69.36" width="5.55" height="5.55"/><rect id="Rectangle_105" x="94.32" y="69.36" width="5.55" height="5.55"/><rect id="Rectangle_106" x="94.32" y="58.26" width="5.55" height="5.55"/><rect id="Rectangle_107" x="94.32" y="47.16" width="5.55" height="5.55"/><rect id="Rectangle_108" x="83.23" y="47.16" width="5.55" height="5.55"/><rect id="Rectangle_109" x="72.13" y="47.16" width="5.55" height="5.55"/></g></g></svg>
