<?xml version="1.0" encoding="UTF-8"?><svg id="Layer_2" xmlns="http://www.w3.org/2000/svg" viewBox="0 0 119.99 128.09"><defs><style>.cls-1{fill:#fff;}.cls-2{stroke:#231f20;stroke-miterlimit:10;stroke-width:2px;}.cls-2,.cls-3{fill:#231f20;}</style></defs><g id="Laag_1"><g><g><path class="cls-2" d="M16.79,1c8.39,.23,12.5,4.72,12.33,13.46l-.09,4.62-9.31-.18,.1-5.22c.05-2.79-1.01-4.28-3.18-4.48l-1.62,.03c-2.04,.29-3.08,1.72-3.13,4.3l-.46,24.2c-.05,2.43,.94,3.84,2.94,4.24l1.62,.03c2.2-.23,3.32-1.6,3.37-4.12l.12-6.68,9.31,.18-.1,5.28c-.17,8.87-4.45,13.35-12.84,13.44l-1.67-.03c-8.08-.57-12.04-5.3-11.87-14.19l.42-22.08C2.9,5.62,7.02,1.37,15.1,1.03l1.69-.03Z"/><path class="cls-2" d="M44.23,50.62c-8.2-.61-12.21-5.53-12.04-14.74l.4-21.25c.16-8.53,4.34-12.87,12.54-13.04l1.51-.03c8.38,.23,12.49,4.83,12.32,13.8l-.4,21.25c-.17,9.27-4.46,13.95-12.85,14.04l-1.49-.03Zm.79-40.89c-2.14,.29-3.24,1.81-3.29,4.58l-.44,23.45c-.05,2.83,.98,4.42,3.11,4.76l1.45,.03c2.2-.23,3.32-1.77,3.38-4.64l.44-23.45c.05-2.83-1.01-4.4-3.2-4.71l-1.45-.03Z"/><path class="cls-2" d="M61.72,50.01c1.32-1.64,2.11-9.46,2.38-23.47,.26-14.01-.23-21.88-1.49-23.61l16.07,.3c7.93,.15,11.81,4.69,11.64,13.61l-.38,20.13c-.17,9.04-4.25,13.49-12.24,13.34l-15.98-.3Zm11.57-38.39l-.57,30.11,3.91,.07c1.45,.03,2.49-.25,3.12-.84,.63-.59,.95-1.56,.98-2.92l.41-21.79c.03-1.62-.27-2.78-.91-3.47-.64-.69-1.68-1.05-3.14-1.08l-3.8-.07Z"/><path class="cls-2" d="M115.93,27.76h.02l-.08,4.3c-1.44-.94-3.31-1.44-5.63-1.48-2.32-.04-4.26-.08-5.83-.11l-.22,11.7c.61,.01,2.4,.04,5.37,.1,2.97,.06,5.24-.89,6.8-2.83l-.22,11.58-23.05-.43c1.32-1.64,2.11-9.46,2.38-23.48,.26-14.01-.23-21.88-1.49-23.61l23.05,.43-.21,11.24c-1.45-1.94-3.69-2.94-6.71-3-3.03-.06-4.81-.09-5.35-.1l-.19,10.06c1.57,.03,3.51,.07,5.82,.11s4.21-.39,5.7-1.3l-.08,4.3h-.02l-.05,2.49Z"/></g><g><rect class="cls-1" x="1" y="55" width="117.99" height="72.1"/><path class="cls-3" d="M119.99,128.09H0V54H119.99v74.1ZM2,126.09H117.99V56H2V126.09Z"/></g><g><rect class="cls-3" x="8.99" y="63.1" width="102.02" height="55.88"/><path class="cls-3" d="M112.01,119.98H7.99V62.1H112.01v57.88Zm-102.02-2H110.01v-53.88H9.99v53.88Z"/></g><g><path class="cls-1" d="M56.03,113.87h-13.18c1.27-1.54,1.91-8.8,1.91-21.77s-.64-20.25-1.91-21.83h13.18c-1.46,1.81-2.2,9.08-2.2,21.83s.73,20,2.2,21.77Z"/><path class="cls-1" d="M83.25,70.27v7.75h-7.93c-.31,3.54-.46,8.23-.46,14.07,0,12.75,.73,20,2.2,21.77h-13.18c1.27-1.54,1.91-8.8,1.91-21.77,0-5.84-.13-10.53-.4-14.07h-8.17v-7.75h26.03Z"/></g></g></g></svg>
